<svg width="52" height="50" viewBox="0 0 52 50" fill="none" xmlns="http://www.w3.org/2000/svg">
<g clip-path="url(#clip0_116_147)">
<path d="M42.7918 50H9.20816C4.11632 50 0 45.9405 0 40.919V9.08103C0 4.05949 4.11632 0 9.20816 0H42.7918C47.8837 0 52 4.05949 52 9.08103V40.919C52 45.9405 47.8837 50 42.7918 50Z" fill="#FF26BE"/>
<path d="M41.968 47.8625H10.0317C5.69908 47.8625 2.16724 44.3794 2.16724 40.1066V9.89323C2.16724 5.62041 5.69908 2.13733 10.0317 2.13733H41.9472C46.3028 2.13733 49.8117 5.62041 49.8117 9.89323V40.086C49.8325 44.3794 46.3007 47.8625 41.968 47.8625Z" fill="#2E001F"/>
<path d="M20.5607 23.3968L26.628 34.8922C26.7362 35.0625 26.6717 35.2348 26.497 35.2348H22.726C22.4868 35.2348 22.3786 35.1712 22.2704 34.9579C20.8831 32.1373 19.4749 29.3168 18.0231 26.283H17.9794C16.6794 29.1466 15.2484 32.1599 13.8631 34.9804C13.7549 35.1507 13.6468 35.2163 13.472 35.2163H9.90069C9.68437 35.2163 9.66149 35.0461 9.77173 34.9168L15.708 23.762L9.96725 12.4799C9.83621 12.3097 9.96725 12.1804 10.0962 12.1804H13.8236C14.0399 12.1804 14.1272 12.2235 14.2125 12.4163C15.577 15.2368 16.9644 18.1435 18.2644 20.9845H18.3081C19.5644 18.164 20.9517 15.2368 22.2954 12.4368C22.4036 12.2666 22.468 12.1599 22.6864 12.1599H26.1746C26.3473 12.1599 26.4138 12.2891 26.3057 12.4594L20.5607 23.3968ZM27.6909 26.8799C27.6909 21.9015 31.0501 18.0122 36.3791 18.0122C36.8346 18.0122 37.0717 18.0122 37.5065 18.0553V12.3938C37.5065 12.2645 37.6146 12.1804 37.7228 12.1804H41.1465C41.3191 12.1804 41.3628 12.244 41.3628 12.3507V31.9671C41.3628 32.5435 41.3628 33.2697 41.4709 34.0615C41.4709 34.1907 41.4273 34.2317 41.2983 34.2973C39.4783 35.1527 37.5709 35.5363 35.7509 35.5363C31.0481 35.5548 27.6889 32.6932 27.6909 26.8799ZM37.5044 21.4112C37.2007 21.282 36.7681 21.1979 36.2481 21.1979C33.517 21.1979 31.6117 23.2697 31.6117 26.7117C31.6117 30.644 33.5628 32.2256 36.0109 32.2256C36.5309 32.2256 37.0946 32.162 37.5065 31.9897V21.4112H37.5044Z" fill="#FFD9F2"/>
</g>
<defs>
<clipPath id="clip0_116_147">
<rect width="52" height="50" fill="white"/>
</clipPath>
</defs>
</svg>
