<svg width="52" height="52" viewBox="0 0 52 52" fill="none" xmlns="http://www.w3.org/2000/svg">
<g clip-path="url(#clip0_116_166)">
<path fill-rule="evenodd" clip-rule="evenodd" d="M6.57635e-06 26C6.57635e-06 36.2906 5.98001 45.1848 14.6532 49.3979L2.25117 15.418C0.764518 18.7477 -0.00259129 22.3536 6.57635e-06 26ZM43.5522 24.6881C43.5522 21.4739 42.3963 19.2498 41.4083 17.5186C40.0898 15.3736 38.8538 13.5612 38.8538 11.4194C38.8538 9.02852 40.6651 6.80444 43.2196 6.80444C43.3355 6.80444 43.4449 6.81852 43.5565 6.82611C38.7684 2.42797 32.5015 -0.00866925 26 2.3177e-05C16.9152 2.3177e-05 8.92559 4.66052 4.27592 11.7184C4.83365 11.7372 5.39163 11.7473 5.94967 11.7488C8.66884 11.7488 12.8787 11.4194 12.8787 11.4194C14.2794 11.336 14.4452 13.3965 13.0444 13.5612C13.0444 13.5612 11.6361 13.7269 10.0696 13.8104L19.5368 41.9716L25.2276 24.9069L21.1781 13.8093C20.2662 13.7527 19.3562 13.6696 18.4492 13.5601C17.0484 13.4778 17.2131 11.336 18.6149 11.4194C18.6149 11.4194 22.9082 11.7488 25.4638 11.7488C28.1829 11.7488 32.3928 11.4194 32.3928 11.4194C33.7946 11.336 33.9593 13.3965 32.5585 13.5612C32.5585 13.5612 31.148 13.7269 29.5826 13.8104L38.9783 41.7571L41.574 33.0926C42.6953 29.4949 43.5522 26.9122 43.5522 24.6881ZM48.815 13.5254C48.9266 14.3542 48.9905 15.2414 48.9905 16.1991C48.9905 18.8359 48.4965 21.8021 47.0123 25.5125L39.0715 48.4727C46.8 43.966 52 35.5908 52 26C52 21.4793 50.8441 17.2294 48.815 13.5254ZM26.455 28.275L18.6528 50.9427C20.9831 51.6284 23.4466 52.0022 25.9978 52.0022C29.0258 52.0022 31.9302 51.4789 34.632 50.5289C34.561 50.4149 34.4994 50.2953 34.4478 50.1714L26.455 28.275Z" fill="#405BE7"/>
</g>
<defs>
<clipPath id="clip0_116_166">
<rect width="52" height="52" fill="white"/>
</clipPath>
</defs>
</svg>
