<svg width="52" height="52" viewBox="0 0 52 52" fill="none" xmlns="http://www.w3.org/2000/svg">
<g clip-path="url(#clip0_116_203)">
<path d="M40.3284 0H11.6716C5.22557 0 0 5.22557 0 11.6716V40.3284C0 46.7744 5.22557 52 11.6716 52H40.3284C46.7744 52 52 46.7744 52 40.3284V11.6716C52 5.22557 46.7744 0 40.3284 0Z" fill="#81B441"/>
<path fill-rule="evenodd" clip-rule="evenodd" d="M19.8133 28.9629C19.8133 28.3865 19.8133 27.7921 19.9574 27.1617C20.4654 22.6871 22.6939 18.5855 26.1714 15.7242C26.8696 14.9883 27.7065 14.3978 28.6339 13.9866C29.5613 13.5755 30.5608 13.3519 31.575 13.3286C32.8538 13.1305 34.0066 13.0945 34.4568 14.0671C35.0117 15.1565 35.4931 16.2817 35.8978 17.4353C41.0131 33.9341 30.3682 41.0128 22.3169 37.9868C20.5604 37.4193 18.9786 36.4114 17.7222 35.0591C16.4658 33.7069 15.5766 32.0553 15.1396 30.2619C14.7025 28.4686 14.7321 26.5931 15.2255 24.8144C15.7189 23.0357 16.6596 21.4131 17.9581 20.1011C18.3183 19.7228 18.6605 20.3352 18.6245 20.6054C18.4984 21.506 17.0755 26.5673 19.7232 29.0349L19.8133 28.9629Z" fill="white"/>
</g>
<defs>
<clipPath id="clip0_116_203">
<rect width="52" height="52" fill="white"/>
</clipPath>
</defs>
</svg>
